<?xml version="1.0" encoding="utf-8"?>
<!-- Generator: Adobe Illustrator 19.0.0, SVG Export Plug-In . SVG Version: 6.00 Build 0)  -->
<svg version="1.1" id="Layer_1" xmlns="http://www.w3.org/2000/svg" xmlns:xlink="http://www.w3.org/1999/xlink" x="0px" y="0px"
	 viewBox="0 0 500 500" style="enable-background:new 0 0 500 500;" xml:space="preserve">
<style type="text/css">
	.st0{fill:#FEBE20;}
</style>
<g id="XMLID_1_">
	<polygon id="XMLID_3_" class="st0" points="416,268.2 80.7,300.3 80.7,238 416,205.9 	"/>
	<path id="XMLID_11_" d="M336.3,234.5l2.6,10.8l-8.2,1L336.3,234.5z M432.5,184.2l-12.1,86.4L67.5,315.8l12.1-86.4L432.5,184.2z
		 M390.5,232.5l16.7-24.3l-17.4,2.1l-7.8,12l-6.5-10.3l-16.2,2l13.2,20l-15,21.9l-11.3-40.3l-14.9,1.8l-23.9,45.6l6.1-43.5l-16.5,2
		l-11.9,17.5l-7.3-15.1l-14.8,1.8l-6.5,46.4l14.7-1.8l3.2-23l8,15.3l0.3,0l12.7-17.8l-3.2,23l13.7-1.7l1.2-0.2l15.1-1.9l3.2-6.5
		l15.7-1.9l1.5,5.9l12-1.5l4-0.5l13.4-1.7l9.1-14l7,12l16.2-2L390.5,232.5z M232.2,246.8l0.7-4.7l23.6-2.9l1.8-12.7l-38.3,4.7
		l-6.5,46.4l38.3-4.7l1.8-12.7l-23.5,2.9l0.8-5l21.9-2.7l1.6-11.2L232.2,246.8z M163.8,283.7l14.9-1.8l3.3-23.1l13.4,21l13.3-1.6
		l6.6-46.4l-14.9,1.8l-3.2,22.2l-12.8-20.2l-14.1,1.7L163.8,283.7z M165.7,237.8l-15,1.8l-6.6,46.4l15-1.8L165.7,237.8z
		 M101.9,283.3c-0.4,4.1,3.8,7.6,9.4,6.9h0l28-3.5l1.9-13l-19,2.3c-2.5,0.3-4.8-0.5-4.3-3.7l1.7-11.8c0.5-3.7,3.7-4.7,7-5.1
		l17.6-2.2l1.9-13l-31,3.8c-4.3,0.5-7.7,3.3-8.7,7.3L101.9,283.3z"/>
</g>
</svg>
